<?xml version="1.0" standalone="no"?><!DOCTYPE svg PUBLIC "-//W3C//DTD SVG 1.1//EN" "http://www.w3.org/Graphics/SVG/1.1/DTD/svg11.dtd"><svg t="1490690830849" class="icon" style="" viewBox="0 0 1189 1024" version="1.1" xmlns="http://www.w3.org/2000/svg" p-id="2428" xmlns:xlink="http://www.w3.org/1999/xlink" width="74.3125" height="64"><defs><style type="text/css"></style></defs><path d="M60.52213 600.345089C60.52213 332.919514 277.255416 116.168047 544.699172 116.168047 725.897224 116.168047 889.288435 216.525986 972.694773 373.720855 1009.411288 442.920004 1028.876213 520.194221 1028.876213 600.345089L1083.896331 600.345089C1083.896331 511.148495 1062.202943 425.027456 1021.297149 347.932824 928.438186 172.922716 746.459383 61.147929 544.699172 61.147929 246.867611 61.147929 5.502012 302.533776 5.502012 600.345089L60.52213 600.345089 60.52213 600.345089Z" p-id="2429"></path><path d="M778.088533 52.794823C844.486816 81.32281 904.949906 122.15775 956.338843 172.955823 967.14413 183.636871 984.562245 183.536156 995.243293 172.73087 1005.92434 161.925585 1005.823625 144.50747 995.01834 133.826422 938.756516 78.211491 872.54606 33.494954 799.80805 2.243107 785.848579-3.754572 769.670113 2.699736 763.672433 16.659206 757.674754 30.618677 764.129062 46.797144 778.088533 52.794823L778.088533 52.794823ZM1022.543642 251.089626C1036.624021 271.03992 1049.429696 291.861674 1060.874692 313.431914 1081.673347 352.630874 1097.895367 394.142364 1109.164871 437.250803 1121.568815 484.698706 1127.912426 533.836076 1127.912426 583.839053 1127.912426 599.03244 1140.229098 611.349112 1155.422485 611.349112 1170.615873 611.349112 1182.932544 599.03244 1182.932544 583.839053 1182.932544 529.130116 1175.985231 475.316529 1162.396098 423.334974 1150.045017 376.089261 1132.266608 330.595038 1109.477066 287.643882 1096.940433 264.016244 1082.915165 241.211459 1067.495625 219.363727 1058.73476 206.95058 1041.569832 203.98982 1029.156685 212.750686 1016.743536 221.51155 1013.782777 238.676479 1022.543642 251.089626L1022.543642 251.089626Z" p-id="2430"></path><path d="M60.52213 605.851716C60.52213 614.939978 53.123406 622.353136 44.025686 622.353136L121.04426 622.353136C154.463173 622.353136 181.566391 649.462088 181.566391 682.883424L181.566391 902.947582C181.566391 936.339183 154.409154 963.47787 121.04426 963.47787L54.954758 963.47787C58.014909 963.47787 60.52213 965.987495 60.52213 968.983103L60.52213 605.851716 60.52213 605.851716ZM5.502012 605.851716 5.502012 968.983103C5.502012 996.362468 27.616325 1018.497988 54.954758 1018.497988L121.04426 1018.497988C184.787514 1018.497988 236.586509 966.734375 236.586509 902.947582L236.586509 682.883424C236.586509 619.077921 184.852552 567.333018 121.04426 567.333018L44.025686 567.333018C22.712604 567.333018 5.502012 584.577184 5.502012 605.851716L5.502012 605.851716Z" p-id="2431"></path><path d="M907.831953 682.883424C907.831953 649.491823 934.989189 622.353136 968.354083 622.353136L1045.372656 622.353136C1036.206297 622.353136 1028.876213 614.989588 1028.876213 605.851716L1028.876213 968.983103C1028.876213 965.949692 1031.342543 963.47787 1034.443585 963.47787L968.354083 963.47787C934.93517 963.47787 907.831953 936.368918 907.831953 902.947582L907.831953 682.883424 907.831953 682.883424ZM852.811834 682.883424 852.811834 902.947582C852.811834 966.753085 904.545791 1018.497988 968.354083 1018.497988L1034.443585 1018.497988C1061.756746 1018.497988 1083.896331 996.3091 1083.896331 968.983103L1083.896331 605.851716C1083.896331 584.658777 1066.649314 567.333018 1045.372656 567.333018L968.354083 567.333018C904.61083 567.333018 852.811834 619.096631 852.811834 682.883424L852.811834 682.883424Z" p-id="2432"></path></svg>