<?xml version="1.0" standalone="no"?><!DOCTYPE svg PUBLIC "-//W3C//DTD SVG 1.1//EN" "http://www.w3.org/Graphics/SVG/1.1/DTD/svg11.dtd"><svg t="1490690868724" class="icon" style="" viewBox="0 0 1024 1024" version="1.1" xmlns="http://www.w3.org/2000/svg" p-id="3003" xmlns:xlink="http://www.w3.org/1999/xlink" width="64" height="64"><defs><style type="text/css"></style></defs><path d="M948.816 264 75.184 264C42.496 264 16 290.496 16 323.184l0 377.632C16 733.504 42.496 760 75.184 760l873.632 0c32.688 0 59.184-26.496 59.184-59.184L1008 323.184C1008 290.496 981.504 264 948.816 264zM962.912 664.176c0 31.36-13.616 50.72-47.472 50.72L108.56 714.896c-29.344 0-47.472-20.064-47.472-50.72L61.088 359.808c0-34.992 19.168-50.72 47.472-50.72l806.896 0c30.112 0 47.472 22.064 47.472 50.72L962.928 664.176zM196.368 128.72c0-31.104 18.208-45.088 45.088-45.088l541.088 0c28.608 0 45.088 19.616 45.088 45.088l0 67.632 67.632 0L895.264 75.184C895.28 42.496 868.768 16 836.096 16L187.904 16C155.232 16 128.72 42.496 128.72 75.184l0 121.184 67.632 0L196.352 128.72zM827.632 895.28c0 27.872-12.944 45.088-45.088 45.088L241.456 940.368c-27.888 0-45.088-17.84-45.088-45.088l0-67.632L128.72 827.648l0 121.184c0 32.688 26.496 59.184 59.184 59.184l648.176 0c32.688 0 59.184-26.496 59.184-59.184l0-121.184-67.632 0L827.632 895.28zM466.912 489.456l-112.72 0 0-90.176-45.088 0 0 248 45.088 0 0-112.72 112.72 0 0 112.72L512 647.28l0-248-45.088 0L466.912 489.456zM728.96 426.848c-10.128-10.944-22.288-18.544-36.496-22.832-10.56-3.152-25.92-4.736-46.064-4.736l-89.328 0 0 248 91.968 0c18.048 0 32.464-1.744 43.264-5.248 14.416-4.736 25.872-11.328 34.336-19.792 11.232-11.168 19.872-25.776 25.92-43.808 4.96-14.768 7.424-32.368 7.424-52.784 0-23.232-2.64-42.768-7.92-58.624C746.8 451.184 739.088 437.792 728.96 426.848zM691.728 592.8c-5.232 4.848-13.984 7.344-21.92 9.376-6.048 1.584-8.896 0-22.544 0l-45.088 0 0-157.824 22.544 0c19.92 0 38.256-1.584 45.088 0 9.136 2.032 14.896 5.152 20.832 10.896 4.848 4.688 25.104 33.456 24.256 79.28C714.304 567.088 695.152 589.632 691.728 592.8z" p-id="3004"></path></svg>