<?xml version="1.0" standalone="no"?><!DOCTYPE svg PUBLIC "-//W3C//DTD SVG 1.1//EN" "http://www.w3.org/Graphics/SVG/1.1/DTD/svg11.dtd"><svg t="1490673133294" class="icon" style="" viewBox="0 0 1024 1024" version="1.1" xmlns="http://www.w3.org/2000/svg" p-id="13300" xmlns:xlink="http://www.w3.org/1999/xlink" width="32" height="32"><defs><style type="text/css"></style></defs><path d="M889.757576 384.016117 848.539826 384.016117c1.288343 4.207835 1.9934 8.610098 2.055822 13.107529 0.173962 12.474103-4.541433 24.155143-13.278421 32.892131-8.566096 8.566096-20.015869 13.282514-32.241308 13.282514-12.565177 0-24.426319-4.940522-33.398668-13.911848l-45.369304-45.369304L302.59062 384.01714l-45.369304 45.369304c-8.972349 8.971325-20.832468 13.911848-33.398668 13.911848-12.225439 0-23.675212-4.716418-32.241308-13.282514-8.736988-8.736988-13.452383-20.418029-13.278421-32.892131 0.062422-4.496407 0.76748-8.898671 2.055822-13.107529l-45.7643 0c-38.570457 0-69.837578 31.267121-69.837578 69.837578 0 37.043684 28.845978 67.333548 65.298192 69.674872 8.452509 78.949097 36.477796 225.079268 51.883671 301.517171 14.635325 72.615854 62.995753 133.907803 140.705626 133.907803l378.709251 0c77.709873 0 126.676098-61.181431 140.705626-133.907803 14.702863-76.215846 43.391253-222.525096 51.879578-301.489542 36.622082-2.164293 65.655326-32.537044 65.655326-69.701478C959.595154 415.283238 928.328034 384.016117 889.757576 384.016117zM368.608196 817.619606c0 25.006534-20.271696 45.279253-45.279253 45.279253s-45.279253-20.271696-45.279253-45.279253L278.04969 568.969503c0-25.006534 20.271696-45.279253 45.279253-45.279253s45.279253 20.271696 45.279253 45.279253L368.608196 817.619606zM557.398979 816.08567c0 25.006534-20.271696 45.279253-45.279253 45.279253s-45.279253-20.271696-45.279253-45.279253L466.840474 567.434543c0-20.959358 14.244422-38.584784 33.577746-43.744293l23.401989 0c19.333324 5.158487 33.577746 22.784936 33.577746 43.744293L557.397956 816.08567zM752.329601 816.08567c0 25.006534-20.271696 45.279253-45.279253 45.279253s-45.279253-20.271696-45.279253-45.279253L661.771095 567.434543c0-20.959358 14.244422-38.584784 33.577746-43.744293l23.401989 0c19.333324 5.158487 33.577746 22.784936 33.577746 43.744293L752.328577 816.08567z" p-id="13301" fill="#707070"></path><path d="M827.570235 374.957811 538.513864 85.902462c-0.134053-0.134053-0.274246-0.258896-0.410346-0.38988-0.12382-0.128937-0.2415-0.260943-0.36839-0.387833-12.287861-12.287861-32.497135-12.001335-45.138036 0.639566L203.412806 374.947578c-12.640901 12.640901-12.927427 32.850176-0.639566 45.138036 12.287861 12.287861 32.497135 12.001335 45.138036-0.639566l267.575128-267.575128L783.071765 419.456281c12.635785 12.635785 32.839943 12.917194 45.127803 0.629333C840.48743 407.797753 840.20602 387.593596 827.570235 374.957811zM515.41068 136.787386c-12.715603 0-23.024389-10.308787-23.024389-23.024389 0-12.715603 10.308787-23.024389 23.024389-23.024389s23.024389 10.308787 23.024389 23.024389C538.435069 126.479623 528.126282 136.787386 515.41068 136.787386z" p-id="13302" fill="#707070"></path></svg>