<?xml version="1.0" standalone="no"?><!DOCTYPE svg PUBLIC "-//W3C//DTD SVG 1.1//EN" "http://www.w3.org/Graphics/SVG/1.1/DTD/svg11.dtd"><svg t="1490673161424" class="icon" style="" viewBox="0 0 1024 1024" version="1.1" xmlns="http://www.w3.org/2000/svg" p-id="14018" xmlns:xlink="http://www.w3.org/1999/xlink" width="32" height="32"><defs><style type="text/css"></style></defs><path d="M967.23968 481.14688a30.80192 30.80192 0 0 0-30.80192 30.85312c0 194.14016-131.26144 358.21568-309.51424 408.448 67.10272-67.19488 144.57344-192.28672 144.57344-411.52 0-378.60352-231.05536-475.86304-240.81408-479.89248a32.6144 32.6144 0 0 0-7.32672-1.85856l-7.15776-0.9728a21.73952 21.73952 0 0 0-4.1984-0.3584C243.87584 25.84064 25.856 243.97824 25.856 512c0 268.1088 218.01984 486.16448 486.144 486.16448 267.95008 0 486.144-218.05568 486.144-486.16448 0-17.09056-13.89056-30.85312-30.90432-30.85312zM388.28032 106.0352c-39.48032 41.84576-81.31072 103.84384-108.11392 193.3312h-135.168c53.26848-91.78112 139.99104-161.75104 243.28192-193.3312zM128.83456 329.37984c1.5616 0.4352 3.1232 0.79872 4.77696 0.79872h138.2912c-12.15488 49.70496-19.5328 107.13088-19.94752 173.22496H87.72096c1.28512-62.1568 15.83616-121.17504 41.1136-174.02368z m8.17664 381.12256c-28.21632-53.10976-45.61408-112.83456-48.82432-176.20992h164.03968c1.92512 67.05152 11.24864 124.96896 25.19552 174.59712H143.71328a14.3872 14.3872 0 0 0-6.70208 1.6128z m17.06496 29.2352h132.94592c28.82048 84.02944 70.8352 141.8496 109.43488 180.55168-101.1712-28.63104-186.99264-93.94688-242.3808-180.55168z m327.87456 172.3904c-35.68128-24.96512-91.63776-76.7744-129.03936-172.3904h129.03936v172.3904z m0-203.25888H341.9392c-15.26272-48.09216-25.74848-105.70752-27.91936-174.59712h167.93088v174.59712z m0-205.4656H313.72288c0.384-67.64544 8.78592-124.83584 21.92896-173.22496h146.29888v173.22496z m0-204.03712H345.1136c37.03296-109.41952 98.51392-166.80448 136.83712-193.50528V299.3664z m61.73696-191.79008c38.36928 27.34592 98.2016 84.608 134.58944 191.79008h-134.58944V107.57632z m0 222.60224h144c13.09696 48.37376 21.54496 105.57952 22.03648 173.22496h-166.03648V330.17856z m0 204.09856h165.60128c-2.07872 68.8896-12.53376 126.50496-27.8016 174.59712h-137.82016v-174.59712h0.02048z m0 376.46336V739.7376h126.8992c-36.6848 93.75232-91.06432 145.30048-126.8992 171.00288z m373.79072-509.74208c0 21.44256 17.44896 38.87616 38.84032 38.87616 21.41184 0 38.80448-17.4336 38.80448-38.87616 0-21.33504-17.39264-38.76864-38.80448-38.76864-21.4016 0-38.84032 17.4336-38.84032 38.76864z m0-70.40512a33.26976 33.26976 0 0 0 33.23392-33.24928c0-18.36544-14.92992-33.20832-33.23392-33.20832-18.29888 0-33.26464 14.84288-33.26464 33.20832 0 18.37056 14.96576 33.24928 33.26464 33.24928z m-63.33952-100.83328a24.46848 24.46848 0 0 0 24.43264-24.48384 24.4224 24.4224 0 0 0-24.43264-24.45824 24.46848 24.46848 0 0 0-24.47872 24.45824 24.5248 24.5248 0 0 0 24.47872 24.48384z" fill="#707070" p-id="14019"></path></svg>